<svg role="img" aria-label="Docker" style="--technology-icon-0:#0B2A43;--technology-icon-1:#0790FC;--technology-icon-2:#07182C;--technology-icon-3:#000B1C;--technology-icon-4:#010917;--technology-icon-5:#010E22;--technology-icon-6:#000815;--technology-icon-7:#003EB2;--technology-icon-8:#09223D;--technology-icon-9:#031A32;--technology-icon-10:#2699D7;--technology-icon-11:#0B0A07;--technology-icon-12:#08C5FA;--technology-icon-13:#0DC8F7;--technology-icon-14:#10CEFB;--technology-icon-15:#05ADF9;--technology-icon-16:#11CBFA;--technology-icon-17:#12CFFA;--technology-icon-18:#0C243F;--technology-icon-19:#111011;--technology-icon-20:#0AC7FA;--technology-icon-21:#0D0F12;--technology-icon-22:#031C3A;--technology-icon-23:#010611;--technology-icon-24:#00102A;--technology-icon-25:#80DDFA;--technology-icon-26:#100E0C;--technology-icon-27:#616772;--technology-icon-28:#3D404B;--technology-icon-29:#57BDFB;--technology-icon-30:#01091B;--technology-icon-31:#040D18;--technology-icon-32:#00050B;--technology-icon-33:#565961;--technology-icon-34:#252831;--technology-icon-35:#013295;--technology-icon-36:#094AA5;--technology-icon-37:#005CA9;--technology-icon-38:#01469C;--technology-icon-39:#0055AA;--technology-icon-40:#9DF0F6;--technology-icon-41:#046BB6;--technology-icon-42:#010B1C;--technology-icon-43:#8BF4FC;--technology-icon-44:#011A33;--technology-icon-45:#81E2EE;--technology-icon-46:#AEF5F8;--technology-icon-47:#91EDF8;--technology-icon-48:#88EBF7;--technology-icon-49:#020D30;--technology-icon-50:#0056B3;--technology-icon-51:#41B8FA;--technology-icon-52:#0059AE;--technology-icon-53:#000510;--technology-icon-54:#293C53;--technology-icon-55:#595F6C;--technology-icon-56:#322C2A;--technology-icon-57:#3E495C;--technology-icon-58:#021B34;--technology-icon-59:#B8EBF9;--technology-icon-60:#83DBF6;--technology-icon-61:#001C56;--technology-icon-62:#0FA9E7;--technology-icon-63:#0064E2;--technology-icon-64:#29384E;--technology-icon-65:#0147BB;--technology-icon-66:#585C68;--technology-icon-67:#2E2D30;--technology-icon-68:#011C47;--technology-icon-69:#38D2FA;--technology-icon-70:#020E1F;--technology-icon-71:#B7F4F9;--technology-icon-72:#149FEF;--technology-icon-73:#010B15;--technology-icon-74:#6CC8D5;--technology-icon-75:#322F30;--technology-icon-76:#15191F;--technology-icon-77:#041A31;--technology-icon-78:#3BCFF8;--technology-icon-79:#0B253C;--technology-icon-80:#2E3F55;--technology-icon-81:#313B4B;--technology-icon-82:#67CDEE;--technology-icon-83:#6EF3F9;--technology-icon-84:#89EDF7;--technology-icon-85:#000410;--technology-icon-86:#000107;--technology-icon-87:#7A7D88;--technology-icon-88:#70C8DE;--technology-icon-89:#2DADE2;--technology-icon-90:#020408;--technology-icon-91:#52D4F8;--technology-icon-92:#000A18;--technology-icon-93:#004ABF;--technology-icon-94:#000D29;--technology-icon-95:#020409;--technology-icon-96:#3DB3FA;--technology-icon-97:#41D3F8;--technology-icon-98:#76D2F4;--technology-icon-99:#000919;--technology-icon-100:#0048C1;--technology-icon-101:#292428;--technology-icon-102:#25A9F8;--technology-icon-103:#82D3F1;--technology-icon-104:#362E28;--technology-icon-105:#010B1E;--technology-icon-106:#2F3F56;--technology-icon-107:#453B37;--technology-icon-108:#0050DB;--technology-icon-109:#071324;--technology-icon-110:#0B0806;--technology-icon-111:#0C0A08;--technology-icon-112:#0B0906;--technology-icon-113:#0B0A08;--technology-icon-114:#0B0805;--technology-icon-115:#0B0B08;--technology-icon-116:#0B0A09;--technology-icon-117:#0B0908;--technology-icon-118:#0B0807" viewBox="0 0 289 243" xmlns="http://www.w3.org/2000/svg" width="289" height="243"><path fill="var(--technology-icon-0)" d="M171.75-.312c1.29-.02 2.58-.03 3.9-.05h3.77c1.12 0 2.24-.01 3.4-.01 5.85.68 9.61 3.42 13.67 7.53.39.4.39.4 2.39 2.41.8.82 1.6 1.65 2.43 2.5.83.82 1.65 1.65 2.5 2.5 5.74 5.83 7.32 7.76 7.32 16.15 0 1.57.01 3.15.01 4.77-.01.82-.01 1.65-.01 2.49 0 2.48 0 4.96.01 7.44-.01 7.94-.13 15.71-1.14 23.58l-3-2h2v-2c-.85.15-1.69.29-2.56.44-3.48.57-6.95 1.07-10.44 1.56v2h-3c1 1 1 1 3.83 1.02 1.24-.04 2.49-.09 3.77-.13l4.12-.09c2.87-.07 5.74-.16 8.61-.28 11.73-.2 11.73-.2 16.67 3.5.99.99 1.98 1.97 3 2.98.51-.95 1.02-1.9 1.54-2.88.34-.63.34-.63 2.09-3.81l2.03-3.76c2.76-4.19 5.82-7.29 10.34-9.55 4.67-.65 6.65-.22 10.69 2.31 9.01 7.4 18.39 15.45 25.62 24.63.56.68 1.12 1.36 1.69 2.06h2v42c-6 2.25-9.19 3.41-15.19 3.75-1.17.08-2.34.16-3.54.24-2.95.01-5.42-.28-8.27-.99v2h-3c-.39 1.31-.79 2.62-1.2 3.96-1.64 4.94-3.99 9.2-6.67 13.67-.85 1.41-1.69 2.83-2.56 4.29-2.39 3.8-4.91 7.46-7.57 11.08l1 2c.58-.72 1.16-1.44 1.75-2.19 1.41-1.76 2.83-3.52 4.25-5.27 11.66-14.41 11.66-14.41 14-23.35.33-1.05.66-2.1 1-3.19 3.33-1.11 5.57-.96 9.06-.81 6.6.08 11.02-1.36 16.94-4.19v8c-7.57 3.34-14.87 3.12-23 3-.11.4-.11.4-.67 2.41-1.73 4.66-4.13 8.75-6.64 13.03-.24.41-.24.41-1.44 2.49a156 156 0 0 1-9.25 14.07c4.65-5.82 8.91-11.77 13-18 1-1 1-1 4.06-1.06l2.94.06c1.21 3.63.54 4.64-1 8h2v2l3-1c1 3 1 3 .14 5.24-4.32 7.86-9.53 14.79-15.14 21.76-.7.89-1.4 1.78-2.12 2.7-3.01 3.69-6.51 6.93-9.88 10.3-.72.77-1.44 1.53-2.19 2.31-1.81 1.69-1.81 1.69-3.81 1.69v-3h-2l1 4c-2.81 2.07-2.81 2.07-6 4l-3-1v-3h-3l1-7h2v-2l-2-1h2v-2c-5.18 2.02-9.72 4.41-14.25 7.63l-2.7 1.91c-.34.24-.34.24-2.05 1.46l1 2-6 1-1 3c-2.45.96-2.45.96-5.69 1.81-4.85 1.38-9.3 3.01-13.87 5.13-6.76 3.01-13.59 4.78-20.78 6.41-3.69.85-6.48 1.53-9.66 3.65-8.99 1.25-8.99 1.25-14 0l-2 1-4-1c-1.68.29-3.34.62-5 1h-3c-2.67.32-5.34.65-8 1l1 1v4h6c.16.83.16.83 1 5l8 2v1c-24.16 1.59-49.45-9.58-67.61-24.86-21.79-19.5-38.62-45.67-42.39-75.14-.14-3.3-.23-6.57-.25-9.87l-.06-2.61c-.05-7.1 1.12-12.8 5.62-18.39 5.66-4.48 10.66-4.2 17.69-4.13-.02-.75-.03-1.5-.05-2.27-.06-3.43-.1-6.86-.14-10.29-.02-1.18-.05-2.36-.07-3.58-.06-6.3-.01-11.27 3.26-16.86 4.7-4.46 8.3-5.12 14.64-5.31 1.3-.05 2.59-.09 3.93-.13l4.12-.12c1.37-.04 2.74-.09 4.15-.13 3.39-.11 6.77-.21 10.16-.31.01-.69.03-1.38.04-2.09.08-3.16.18-6.31.27-9.47.03-1.09.05-2.17.07-3.29.24-7.2.62-13.3 6.12-18.52 6.41-4.17 14.42-2.81 21.8-2.81 2.69 0 5.38-.02 8.07-.04 1.71-.01 3.42-.01 5.13-.01.78 0 .78 0 4.72-.01 3.78.24 3.78.24 6.78 2.24.01-.69.03-1.39.04-2.11.08-3.17.18-6.34.27-9.51.03-1.1.05-2.19.07-3.32.26-7.68 1.01-12.44 6.62-18.06 8.22-2.25 16.26-2.33 24.75-2.31"/><path fill="var(--technology-icon-1)" d="M249 67c7.87 1.97 13.4 9.58 17.5 16.31 3.27 5.75 4.76 10 4.5 16.69.93-.47 1.86-.95 2.81-1.44C278 97 278 97 289 96v31c-6 2.25-9.19 3.4-15.19 3.75-1.17.08-2.34.15-3.54.23-2.95.02-5.42-.27-8.27-.98v2h-3c-.2.65-.2.65-1.19 3.95-1.67 5-4.02 9.31-6.75 13.8-.43.73-.86 1.46-1.3 2.21-3.67 6.13-7.74 11.02-12.76 16.04-1.11 1.26-2.22 2.54-3.31 3.81-21.64 24.79-52.88 41.5-85.69 45.19-6 .3-11.99.32-18 .31-1.56.02-3.12.03-4.73.05-8.91.01-16.78-.65-25.27-3.36-.73-.21-.73-.21-4.4-1.29C72.77 205.04 54.13 189.45 43 168c-6.17-14.61-10.04-32.13-8-48 3.42-2.28 4.64-2.25 8.66-2.25 1.18 0 2.36-.01 3.57-.01 1.3.01 2.6.01 3.93.02 1.37 0 2.73-.01 4.14-.01 4.54 0 9.08.01 13.61.02h9.5c6.65 0 13.31.01 19.97.02 7.63.02 15.26.03 22.89.02 7.39 0 14.77.01 22.16.02h9.35c18.1.01 36.14.31 54.22 1.17 26.85.96 26.85.96 36-4l2-2c-.64-1.22-1.28-2.43-1.94-3.69-4.53-9.47-4.53-21.07-1.13-30.98 1.89-4.13 4.41-7.66 7.07-11.33"/><path fill="var(--technology-icon-2)" d="M189 2c3.58 1.79 5.33 3.09 8.07 5.84.75.76 1.5 1.51 2.28 2.28.38.39.38.39 2.34 2.38.78.79 1.57 1.57 2.37 2.38 5.65 5.69 7.07 7.6 7.07 15.84 0 1.57.01 3.14.01 4.76-.01.83-.01 1.65-.01 2.5 0 2.48 0 4.96.01 7.44-.01 7.94-.13 15.71-1.14 23.58-.5-.33-.5-.33-3-2h2v-2c-.85.14-1.69.29-2.56.44-3.48.57-6.95 1.07-10.44 1.56v2h-3c1 1 1 1 3.83 1.02 1.24-.05 2.49-.09 3.77-.13 1.36-.03 2.72-.06 4.12-.1q4.305-.105 8.61-.27c11.73-.2 11.73-.2 16.67 3.5.99.98 1.98 1.97 3 2.98.51-.95 1.02-1.91 1.54-2.89l2.08-3.8a593 593 0 0 0 2.04-3.76c2.76-4.19 5.82-7.29 10.34-9.55 4.67-.65 6.65-.22 10.69 2.31 9.01 7.4 18.39 15.44 25.62 24.63.56.68 1.12 1.36 1.69 2.06h2v11c-.96.2-1.93.41-2.92.62-1.27.27-2.53.54-3.83.82-1.25.26-2.51.53-3.8.81-2.49.54-4.97 1.13-7.45 1.75-.11-.73-.11-.73-.69-4.44C267.91 83.84 260.2 76.2 252 68l-3-1-2 4c-.47.7-.95 1.4-1.44 2.12-4.93 9.08-6.21 19.51-3.95 29.6.7 2.13 1.54 4.21 2.39 6.28.39 1.01.78 2.02 1.19 3.06.13.32.13.32.81 1.94-8.95 4.71-15.91 6.31-25.88 6.19h-2.73c-6.07-.04-12.13-.26-18.19-.53-18.2-.81-36.4-.99-54.61-1.19-4.48-.05-8.96-.11-13.44-.16-8.72-.11-17.43-.21-26.15-.31l-1-3h-2v-2c5.11-.16 5.11-.16 31-1l.06-14.94.03-4.72c0-1.21.01-2.43.01-3.68s.01-2.5.01-3.79C133 82 133 82 132 81c-2.36-.16-4.73-.25-7.1-.32l-4.36-.12-4.6-.12c-1.52-.05-3.05-.09-4.61-.13-3.78-.11-7.55-.21-11.33-.31l2-3-1-2 34-1c.06-4.56.12-9.12.19-13.81.02-1.44.05-2.87.08-4.35 0-.56 0-.56.02-3.42.01-.58.01-.58.05-3.51C135 46 135 46 132 43c-3.09-.43-3.09-.43-6.86-.51-1.34-.04-2.68-.07-4.07-.11-1.4-.02-2.81-.04-4.26-.07-1.41-.03-2.83-.07-4.29-.1-3.51-.08-7.01-.15-10.52-.21v-1c5.08-.12 10.17-.19 15.25-.25.72-.02.72-.02 4.38-.1 1.38-.01 2.77-.03 4.2-.04l3.87-.06c3.3.45 3.3.45 5.75 2.35C137 45 137 45 137 47l4 2 2 2c-.14-1.79-.29-3.58-.44-5.38-.08-.99-.16-1.99-.24-3.02C142 40 142 40 141 38h3v-2.28c.01-3.43.07-6.85.12-10.28v-3.58c.22-9.87.22-9.87 3.7-14.14C152.22 3.96 155.44 4 161 4c1.96-.01 3.92-.02 5.88-.04 2.37 0 4.74-.01 7.12-.02.6-.01.6-.01 3.64-.03 1.15 0 2.3 0 3.48-.01.53 0 .53 0 3.2-.01C187 4 187 4 190 5c-.16-.5-.16-.5-1-3"/><path fill="var(--technology-icon-3)" d="m32 116 3 1-1 2 2 1c-.03.96-.07 1.92-.11 2.9-.52 26.02 6.71 49.18 24.73 68.29C71.26 201.28 83.12 207.55 97 212c1.01.33 2.02.65 3.05.99 9.91 3.09 18.86 3.23 29.2 3.26l4.7.06c35.35.12 67.64-14.28 93.13-38.4 3.26-3.24 6.35-6.57 9.33-10.07 1.46-1.68 3.02-3.27 4.59-4.84l1 4c.58-.72 1.16-1.45 1.75-2.19 1.41-1.76 2.83-3.52 4.25-5.27 11.66-14.42 11.66-14.42 14-23.35.33-1.05.66-2.11 1-3.19 3.33-1.11 5.57-.97 9.06-.81 6.6.08 11.02-1.36 16.94-4.19v8c-7.57 3.34-14.87 3.12-23 3-.11.4-.11.4-.67 2.41-1.73 4.66-4.13 8.75-6.64 13.03-.24.41-.24.41-1.44 2.48A155 155 0 0 1 248 171c4.65-5.82 8.91-11.77 13-18 1-1 1-1 4.06-1.06l2.94.06c1.21 3.62.54 4.64-1 8h2v2l3-1c1 3 1 3 .14 5.24-4.32 7.85-9.53 14.78-15.14 21.76-.7.89-1.4 1.78-2.12 2.7-3.01 3.69-6.51 6.93-9.88 10.3-.72.76-1.44 1.53-2.19 2.31C241 205 241 205 239 205v-3h-2l1 4c-2.81 2.06-2.81 2.06-6 4l-3-1v-3h-3l1-7h2v-2l-2-1h2v-2c-5.18 2.02-9.72 4.4-14.25 7.62-.89.64-1.78 1.27-2.7 1.92-.68.48-1.35.96-2.05 1.46l1 2c-.99.16-.99.16-6 1l-1 3c-2.45.96-2.45.96-5.69 1.81-4.85 1.38-9.3 3.01-13.87 5.13-6.76 3.01-13.59 4.78-20.78 6.41-3.69.85-6.48 1.53-9.66 3.65-8.99 1.25-8.99 1.25-14 0-.33.16-.33.16-2 1-.66-.16-.66-.16-4-1-1.68.29-3.34.62-5 1h-3c-2.67.32-5.34.65-8 1l1 1v4h6l1 5 8 2v1c-24.16 1.58-49.45-9.59-67.61-24.86C44.63 198.66 27.73 172.45 24 143c-.12-3.34-.19-6.66-.19-10l-.03-2.66c-.02-4.84.35-8.85 2.22-13.34.91 3.62 1.09 6.19 1.03 9.87-.01 1.13-.03 2.26-.04 3.43-.03 2.38-.07 4.75-.12 7.13l-.03 3.44c-.02 1.03-.03 2.06-.05 3.13.23 3.27 1.05 5.94 2.21 9-.16-.86-.33-1.72-.49-2.61-.49-3.29-.62-6.34-.61-9.66 0-.58 0-.58.01-3.5l.03-3.61c0-1.21.01-2.42.01-3.67.01-2.98.03-5.97.05-8.95h2l1-4z"/><path fill="var(--technology-icon-4)" d="m193 8 2 1c.15 20.35-.31 40.66-1 61 .93-.01 1.86-.01 2.81-.02 4.19-.02 8.38-.03 12.57-.04.73-.01.73-.01 4.42-.03 1.4 0 2.79 0 4.22-.01 1.29 0 2.58-.01 3.91-.01C225 70 225 70 227 71c2.5 6.24 2.2 12.4 2 19l-8-6c.01.84.01 1.69.02 2.55.02 3.8.03 7.59.04 11.39l.03 4.02c0 1.26 0 2.52.01 3.82 0 1.17.01 2.33.01 3.54C221 112 221 112 220 113c-5.62.31-11.25.28-16.88.31l-4.82.09-4.6.03c-1.41.01-2.81.02-4.25.04-1.14-.16-2.28-.31-3.45-.47-3.04-4.05-3.38-4.72-3.51-9.42-.04-1.03-.07-2.05-.11-3.11-.01-.53-.01-.53-.07-3.22-.03-1.08-.07-2.16-.1-3.27q-.12-3.99-.21-7.98h-2c-.05.75-.1 1.49-.15 2.26-.23 3.37-.48 6.74-.73 10.12-.07 1.17-.15 2.35-.23 3.56-.09 1.12-.17 2.24-.26 3.4-.07 1.03-.14 2.07-.22 3.14C178 111 178 111 176 113c-5.48.47-11 .32-16.5.31-.77.01-.77.01-4.69.05h-4.47c-1.36.01-2.71.01-4.12.01-1.06-.12-2.12-.24-3.22-.37-3.44-5.16-2.61-11.43-2.81-17.5-.07-1.34-.13-2.69-.2-4.07-.04-1.29-.09-2.57-.13-3.9-.05-1.18-.09-2.36-.14-3.57C140 81 140 81 143 78c2.32-.72 4.65-1.39 7-2l1-1c2.36-.16 4.73-.25 7.1-.32l4.36-.12 4.6-.12c1.52-.05 3.05-.09 4.61-.13 3.78-.11 7.55-.21 11.33-.31.06-4.46.09-8.92.12-13.38l.06-3.85c0-1.21.01-2.42.02-3.67l.03-3.39C183 47 183 47 181 45c-2.8-.32-2.8-.32-6.32-.41l-3.81-.12-3.99-.09-4.02-.12c-3.29-.1-6.57-.18-9.86-.26l1-3-3-3c-.37-2.7-.37-2.7-.36-5.91v-3.5c.01-1.2.03-2.41.05-3.65-.01-1.21-.01-2.42-.01-3.67.05-9 .05-9 2.32-11.27 4.75-.52 9.54-.42 14.31-.44 1.33-.03 2.67-.06 4.04-.1 1.28 0 2.57-.01 3.89-.02 1.17-.01 2.35-.03 3.56-.04 4.18.78 5.5 2.38 8.2 5.6.75.79 1.51 1.58 2.28 2.4 2.18 3.29 2.21 5.33 2.18 9.26 0 1.27-.01 2.54-.01 3.84-.01.66-.01.66-.07 4-.01 1.32-.01 2.64-.01 4-.1 10.66-.1 10.66-2.37 15.5h2c.9-10.1 1.29-20.18 1.56-30.31.02-.76.02-.76.13-4.59.11-3.7.21-7.4.31-11.1"/><path fill="var(--technology-icon-5)" d="M256 56c10.78 6.76 21.44 16.93 29.31 26.94.56.68 1.12 1.36 1.69 2.06h2v11c-.96.2-1.93.41-2.92.62-1.27.27-2.53.54-3.83.82-1.25.26-2.51.53-3.8.81-2.49.54-4.97 1.13-7.45 1.75-.23-1.46-.45-2.93-.69-4.44C267.91 83.84 260.2 76.2 252 68l-3-1-2 4c-.47.7-.95 1.4-1.44 2.12-4.93 9.08-6.21 19.51-3.95 29.6.7 2.13 1.54 4.21 2.39 6.28.39 1.01.78 2.02 1.19 3.06.13.32.13.32.81 1.94-8.95 4.71-15.91 6.31-25.88 6.19h-2.73c-6.07-.04-12.13-.26-18.19-.53-18.2-.81-36.4-.99-54.61-1.19-4.48-.05-8.96-.11-13.44-.16-8.72-.11-17.43-.21-26.15-.31-.17-.5-.17-.5-1-3h-2v-2c5.12-.16 5.12-.16 31-1l3-9 2-1-.12-4.38C138 93 138 93 140 91l.15 3.8c.07 1.63.15 3.27.23 4.95.03.81.03.81.21 4.92C141 109 141 109 143 113c5.48-.14 10.96-.29 16.44-.44l4.74-.12 4.5-.12c.69-.02.69-.02 4.18-.11C176 112 176 112 177 111c.23-1.92.4-3.85.54-5.79.08-1.16.17-2.33.26-3.54.09-1.23.17-2.46.26-3.73.09-1.24.18-2.47.28-3.75L179 85h4l.06 2.16c.1 3.21.2 6.43.32 9.65l.09 3.4.12 3.25.09 3C184 109 184 109 186 112c3.35.34 3.35.34 7.63.29l4.63-.03c1.61-.02 3.21-.05 4.86-.07.81-.01.81-.01 4.89-.04 4-.04 7.99-.09 11.99-.15l1-28c5 2 5 2 7 5 .18-11.52.18-11.52-1-17l6 4c.51-.95 1.02-1.91 1.54-2.89l2.08-3.8a593 593 0 0 0 2.04-3.76c4.5-6.83 9.11-10.48 17.34-9.55"/><path fill="var(--technology-icon-6)" d="M289 128v8c-7.57 3.34-14.87 3.12-23 3-.11.4-.11.4-.67 2.41-1.73 4.66-4.13 8.75-6.64 13.03-.48.82-.95 1.64-1.44 2.48A155 155 0 0 1 248 171c4.65-5.82 8.91-11.77 13-18 1-1 1-1 4.06-1.06l2.94.06c1.21 3.62.54 4.64-1 8h2v2l3-1c1 3 1 3 .14 5.24-4.32 7.85-9.53 14.78-15.14 21.76-.7.89-1.4 1.78-2.12 2.7-3.01 3.69-6.51 6.93-9.88 10.3-.72.76-1.44 1.53-2.19 2.31C241 205 241 205 239 205v-3h-2l1 4c-2.81 2.06-2.81 2.06-6 4l-3-1v-3h-3l1-7h2v-2c-.33-.16-.33-.16-2-1h2v-2c-5.18 2.02-9.72 4.4-14.25 7.62l-2.7 1.92c-.68.48-1.35.96-2.05 1.46l1 2c-.99.16-.99.16-6 1-.16.5-.16.5-1 3-2.87 1.17-2.87 1.17-6.44 2.19-1.17.34-2.35.69-3.56 1.04-3 .77-3 .77-5 .77v-2l-2.05.91c-.89.38-1.78.76-2.7 1.15-.88.39-1.76.77-2.67 1.16C179 217 179 217 175 216v-2h-6c.5-.16.5-.16 3-1v-2c1.03-.4 2.06-.8 3.12-1.21 23.95-9.56 44.36-22.15 61.26-41.91 1.46-1.7 3.04-3.3 4.62-4.88.16.66.16.66 1 4 .58-.72 1.16-1.45 1.75-2.19 1.41-1.76 2.83-3.52 4.25-5.27 11.66-14.42 11.66-14.42 14-23.35.33-1.05.66-2.11 1-3.19 3.34-1.11 5.62-.97 9.12-.81 6.24.07 11.51-4.19 16.88-4.19"/><path fill="var(--technology-icon-7)" d="M289 120v7c-8.31 3.82-18.03 5.23-27 3v2h-3c-.2.65-.2.65-1.19 3.95-1.67 5-4.02 9.31-6.75 13.8-.21.36-.21.36-1.3 2.21-3.67 6.13-7.74 11.02-12.76 16.04-1.11 1.26-2.22 2.54-3.31 3.81-21.64 24.79-52.88 41.5-85.69 45.19-6 .3-11.99.32-18 .31-1.56.02-3.12.03-4.73.05-8.91.01-16.78-.65-25.27-3.36-1.45-.43-2.9-.85-4.4-1.29C78.29 206.9 64.46 197.18 53 183c.5-.16.5-.16 3-1 .5.56 1 1.11 1.51 1.69 14.31 15.2 35.34 24.11 56.19 24.84 3.42.04 6.85.02 10.27-.04 2.62-.05 5.24-.06 7.86-.07 10.9-.07 20.35-.41 30.17-5.42 2.74-.82 5.49-1.53 8.26-2.25 3.68-1.01 7.19-2.33 10.74-3.75 1.05-.42 2.11-.84 3.19-1.27 4.37-1.98 8.42-4.34 12.5-6.85.79-.49 1.58-.98 2.39-1.48 25.15-15.67 44.63-36.82 57.92-63.4 1.41.05 2.82.09 4.28.14 1.88.04 3.77.07 5.66.11.92.03 1.85.07 2.8.1 7.11.1 12.9-4.35 19.26-4.35"/><path fill="var(--technology-icon-8)" d="m57 77 3 1c.74-.08.74-.08 4.5-.5 5.49-.55 10.93-.52 16.44-.31.81.03.81.03 4.9.17C90 78 90 78 92.57 79.8 94 82 94 82 94 86c2-1 2-1 4-4v30h-2l-1 5 2 1c-.37.01-.37.01-2.23.03-7.62.11-15.24.22-22.87.34-2.85.05-5.69.09-8.54.13-4.09.05-8.17.12-12.26.18-1.28.02-2.56.04-3.88.05l-3.58.06c-1.04.02-2.08.04-3.16.05C38 119 38 119 36 120l-2-1v-2c-.49.16-.49.16-3 1l-1 3h-2c.82-3.62 1.67-5.67 4.31-8.31 5.42-2.48 10.79-2.52 16.69-2.69.76-3.47 1.18-6.8 1.36-10.34.03-.5.03-.5.19-3.03.13-2.09.25-4.17.35-6.26.53-7.66.53-7.66 3.68-11.59.8-.59 1.6-1.17 2.42-1.78"/><path fill="var(--technology-icon-9)" d="m32 116 3 1-1 2 2 1c-.03.96-.07 1.92-.11 2.9-.5 24.75 5.87 47.56 22.81 66.05 2.39 2.39 4.82 4.74 7.3 7.05l3 3v2c4.81 3.97 9.13 6.77 15 9 .33.16.33.16 2 1v6c-13.78-.61-26.07-12.45-36-21 3.9 4.16 8.21 7.63 12.7 11.13C65 209 65 209 68 212h-2v4c-17.8-8.9-30.71-33.86-37-52-3.13-10.46-5.18-20.06-5.19-31l-.03-2.66c-.02-4.84.35-8.85 2.22-13.34.91 3.62 1.09 6.19 1.03 9.87-.01 1.13-.03 2.26-.04 3.43-.03 2.38-.07 4.75-.12 7.13l-.03 3.44c-.02 1.03-.03 2.06-.05 3.13.23 3.27 1.05 5.94 2.21 9-.16-.86-.33-1.72-.49-2.61-.49-3.29-.62-6.34-.61-9.66 0-.58 0-.58.01-3.5l.03-3.61c0-1.21.01-2.42.01-3.67.01-2.98.03-5.97.05-8.95h2l1-4z"/><path fill="var(--technology-icon-10)" d="M247 114v3c-7.48 3.8-12.44 6.25-20.89 6.28-.81 0-.81 0-4.92.03-1.79 0-3.59.01-5.38.01l-5.68.03c-5.14.03-10.27.04-15.41.05-5.37.02-10.73.05-16.1.07-10.17.05-20.33.09-30.49.12-11.58.04-23.15.09-34.72.14-23.8.1-47.61.19-71.41.27-.2 2.1-.38 4.21-.56 6.31-.11 1.17-.21 2.35-.32 3.55C41 137 41 137 42 140c.1 1.61.21 3.22.31 4.88.46 5.81 2.05 10.97 3.95 16.47C47 164 47 164 46 166c-.41-.77-.82-1.54-1.24-2.34l-1.64-3.04c-.26-.49-.26-.49-1.61-3.02C40 155 40 155 38 153c-2.68-10.56-4.4-22.12-3-33 3.42-2.28 4.64-2.25 8.66-2.25 1.18 0 2.36-.01 3.57-.01 1.3.01 2.6.01 3.93.02 1.37 0 2.73-.01 4.14-.01 4.54 0 9.08.01 13.61.02h9.5c6.65 0 13.31.01 19.97.02 7.63.02 15.26.03 22.89.02 7.39 0 14.77.01 22.16.02h9.35c18.1.01 36.14.3 54.22 1.17 14.35.58 26.49.56 40-5"/><path fill="var(--technology-icon-11)" d="M265.25 151.688c.91.1 1.81.21 2.75.31 1.21 3.63.54 4.64-1 8h2v2l3-1c1 3 1 3 .14 5.24-4.32 7.86-9.53 14.79-15.14 21.76-.35.45-.35.45-2.12 2.7-3.01 3.69-6.51 6.93-9.88 10.3-.72.77-1.44 1.53-2.19 2.31-1.81 1.69-1.81 1.69-3.81 1.69v-3h-2l1 4c-2.81 2.07-2.81 2.07-6 4l-3-1v-3h-3l1-7h2v-2l-2-1h2v-2l-5 2c0-3 0-3 1.91-4.98.85-.73 1.71-1.45 2.59-2.21 4.71-4.09 9.14-8.35 13.5-12.81 5-5 5-5 7.44-7.25 3.36-3.6 5.88-7.62 8.56-11.75 3.22-4.92 3.22-4.92 7.25-5.31"/><path fill="var(--technology-icon-12)" d="m146.165 79.773 4.03.03c1.44.01 2.88.01 4.36.02.75.01.75.01 4.57.05l4.6.03c3.76.02 7.52.06 11.28.1l.06 14.43c.01 1.38.01 2.75.02 4.17.01 1.31.01 2.61.01 3.96.01 1.21.01 2.42.02 3.66-.11 2.78-.11 2.78-1.11 3.78-2.44.09-4.88.1-7.32.09-1.49 0-2.97 0-4.5-.01-.79 0-.79 0-4.75-.02-1.57 0-3.14-.01-4.75-.01-3.9-.02-7.79-.03-11.68-.05-.06-4.63-.1-9.25-.13-13.88-.02-1.32-.03-2.64-.05-3.99 0-.63 0-.63-.02-3.81l-.03-3.53c.33-4.12 1.31-4.73 5.39-5.02"/><path fill="var(--technology-icon-13)" d="m104.073 79.773 3.9.03c1.4.01 2.79.01 4.22.02.73.01.73.01 4.43.05.74.01.74.01 4.46.03 3.64.02 7.28.06 10.92.1.03 4.81.04 9.62.06 14.43l.03 4.17v3.96c.01 1.21.02 2.42.02 3.66-.11 2.78-.11 2.78-1.11 3.78-2.37.09-4.73.1-7.1.09-1.44 0-2.88 0-4.37-.01-.75 0-.75 0-4.6-.02-.76 0-.76 0-4.61-.01-3.77-.02-7.55-.03-11.32-.05-.06-4.63-.1-9.25-.13-13.88-.01-1.32-.03-2.64-.05-3.99 0-.63 0-.63-.02-3.81l-.03-3.53c.33-4.06 1.27-4.72 5.3-5.02"/><path fill="var(--technology-icon-14)" d="M159.469 9.734c1.29 0 2.59-.01 3.92-.01.68.01.68.01 4.11.03l4.11-.03c1.3 0 2.59.01 3.92.01 1.19 0 2.39 0 3.61.01 2.86.26 2.86.26 4.86 2.26.23 2.79.23 2.79.2 6.32-.01 1.25-.02 2.51-.02 3.8-.02 1.32-.04 2.64-.05 4l-.03 4.02c-.02 3.29-.06 6.57-.1 9.86-5.12.05-10.25.09-15.37.12-.73.01-.73.01-4.43.05-.7 0-.7 0-4.22.02l-3.91.03c-3.07-.22-3.07-.22-5.07-2.22-.26-2.59-.26-2.59-.26-5.82-.01-1.15-.01-2.31-.01-3.5.01-1.22.01-2.43.02-3.68-.01-1.22-.01-2.43-.02-3.68 0-1.16 0-2.32.01-3.51v-3.23c.55-5.5 4.08-4.84 8.73-4.85"/><path fill="var(--technology-icon-15)" d="M188.051 80.886c1.34.01 2.67.01 4.05.02 1.44 0 2.88 0 4.36.01.76 0 .76 0 4.6.02.76 0 .76 0 4.61.01 3.78.02 7.55.03 11.33.05v29h-33l-.06-13.93-.03-4.41c0-1.13-.01-2.26-.01-3.43s-.01-2.34-.01-3.54c.16-3.82.29-3.66 4.16-3.8"/><path fill="var(--technology-icon-16)" d="m62.981 79.773 3.78.03c1.34.01 2.69.01 4.08.02 1.41.02 2.83.03 4.28.05l4.31.03c3.52.02 7.05.06 10.57.1q.045 7.215.06 14.43l.03 4.17c0 1.31 0 2.61.01 3.96 0 1.21.01 2.42.01 3.66-.11 2.78-.11 2.78-1.11 3.78-2.29.08-4.59.1-6.88.09-.7 0-.7 0-4.23-.01-.73 0-.73 0-4.45-.02-1.48 0-2.95-.01-4.47-.01-3.66-.02-7.31-.03-10.97-.05-.06-4.63-.09-9.25-.13-13.88-.01-1.32-.03-2.64-.05-3.99 0-.63 0-.63-.02-3.81l-.03-3.53c.33-4 1.23-4.72 5.21-5.02"/><path fill="var(--technology-icon-17)" d="M103.051 42.886c1.34.01 2.67.01 4.05.02 1.44 0 2.88 0 4.36.01.76 0 .76 0 4.6.02.76 0 .76 0 4.61.01 3.78.02 7.55.03 11.33.05v29h-33l-.06-13.93-.03-4.41c0-1.13-.01-2.26-.01-3.43s-.01-2.34-.01-3.54c.16-3.82.29-3.66 4.16-3.8"/><path fill="var(--technology-icon-18)" d="M256 56c10.78 6.76 21.44 16.93 29.31 26.94.56.68 1.12 1.36 1.69 2.06h2v11c-.96.2-1.93.41-2.92.62-1.27.27-2.53.54-3.83.82-1.25.26-2.51.53-3.8.81-2.49.54-4.97 1.13-7.45 1.75-.23-1.46-.45-2.93-.69-4.44C267.91 83.84 260.2 76.2 252 68l-3-1-2 4c-.5.8-.99 1.61-1.5 2.44-1.44 2.46-2.51 4.89-3.5 7.56l-2-1 1-5h2l-2-3c-.76 1.3-1.53 2.6-2.31 3.94C236 80 236 80 233 81c.47-5.48 1.83-9.04 4.75-13.69.68-1.09 1.35-2.19 2.05-3.32 4.48-6.09 8.6-8.85 16.2-7.99"/><path fill="var(--technology-icon-19)" d="M50 196c4 2 4 2 7.44 5.12 17.82 15.83 42.27 24.11 65.87 23.98.48 0 .48 0 2.93-.01 3.06 0 6.13-.01 9.2-.03 2.09 0 4.17-.01 6.26-.01 5.1-.01 10.2-.03 15.3-.05-3.92 3.92-7.69 3.97-13 4-.66-.16-.66-.16-4-1-.33.16-.33.16-2 1-.66-.16-.66-.16-4-1-1.68.29-3.34.62-5 1h-3c-2.67.32-5.34.65-8 1l1 1v4h6c.16.82.16.82 1 5l8 2v1c-25.16 1.65-50.06-10.39-69-26l2-6c-.72-.52-1.45-1.04-2.2-1.57-11.02-7.96-11.02-7.96-14.8-11.43z"/><path fill="var(--technology-icon-20)" d="M154.776 44.886c1.21.01 2.42.01 3.67.02 1.3 0 2.61 0 3.95.01.69 0 .69 0 4.17.02 1.38.01 2.75.01 4.17.01 3.42.02 6.84.03 10.26.05v27h-30l-.06-12.93-.03-4.09v-3.19c-.01-1.09-.01-2.17-.02-3.29.16-3.53.33-3.46 3.89-3.61"/><path fill="var(--technology-icon-21)" d="M195 12c4.48 1.12 5.62 2.3 8.75 5.56.4.42.4.42 2.42 2.51.61.63 1.21 1.27 1.83 1.93l2-1c1.57 3.15 1.13 6.22 1.13 9.72 0 .79 0 .79.01 4.76 0 .42 0 .42-.01 2.5 0 2.48 0 4.96.01 7.44-.01 7.94-.13 15.71-1.14 23.58l-3-2h2v-2c-.85.14-1.69.29-2.56.44-3.48.57-6.95 1.07-10.44 1.56v2h-2c-.11-19.03-.02-37.99 1-57"/><path fill="var(--technology-icon-22)" d="M194 70c5.12-.03 10.25-.05 15.38-.06l4.42-.03c1.4 0 2.79 0 4.22-.01 1.29 0 2.58-.01 3.91-.01C225 70 225 70 227 71c2.5 6.24 2.2 12.4 2 19l-8-6c.01.84.01 1.69.02 2.55.02 3.8.03 7.59.04 11.39l.03 4.02c0 1.26 0 2.52.01 3.82 0 1.17.01 2.33.01 3.54C221 112 221 112 220 113c-2.51.09-5.02.11-7.54.1-.76 0-.76 0-4.63-.01-.81-.01-.81-.01-4.89-.03-1.62 0-3.24-.01-4.9-.01-4.02-.01-8.03-.03-12.04-.05-.16-.5-.16-.5-1-3h32V81h-31l1-2h4c1.64-3.29 2.41-5.48 3-9"/><path fill="var(--technology-icon-23)" d="M179 85h4c.28 4.42.52 8.83.75 13.25.08 1.25.16 2.51.25 3.8.05 1.21.11 2.41.17 3.65.06 1.11.13 2.22.19 3.37-.44 3.6-1.59 4.69-4.36 6.93l2 2h-77c-.17-.5-.17-.5-1-3h-2v-2c5.11-.16 5.11-.16 31-1l3-9 2-1-.12-4.38C138 93 138 93 140 91l.15 3.8c.07 1.63.15 3.27.23 4.95.03.81.03.81.21 4.92C141 109 141 109 143 113c5.48-.14 10.96-.29 16.44-.44l4.74-.12 4.5-.12c1.38-.04 2.76-.08 4.18-.11C176 112 176 112 177 111c.23-1.92.4-3.85.54-5.79.08-1.16.17-2.33.26-3.54.09-1.23.17-2.46.26-3.73.09-1.24.18-2.47.28-3.75z"/><path fill="var(--technology-icon-24)" d="M68 199c3.74 1.37 6.89 3.12 10.25 5.25 15.87 9.39 32.29 11.99 50.37 12.37l4.49.12c3.63.1 7.26.18 10.89.26v1c-.8.03-1.6.05-2.43.08-3.63.11-7.26.23-10.88.36l-3.83.12-3.66.12c-1.12.04-2.23.08-3.38.11C117 219 117 219 114 220c3.94 1.77 7.61 2.54 11.88 3.12 1.17.17 2.34.34 3.55.51 8.35.86 15.71-.48 23.9-2.07C157 221 157 221 159 222v2c-9.25 2.33-18.25 2.33-27.75 2.31-1.55.02-3.11.03-4.71.05-12.83.01-24.27-2.1-36.42-6.05-1.35-.43-2.71-.87-4.11-1.32-.99-.33-1.99-.65-3.01-.99l3-1v-6c-.65-.18-.65-.18-3.94-1.06-5.49-1.82-9.94-4.9-14.06-8.94z"/><path fill="var(--technology-icon-25)" d="M43.766 118.864c.98 0 1.96 0 2.96.01.52 0 .52 0 3.11-.01h17.51c5.09 0 10.18 0 15.27.01 6.4 0 12.79 0 19.18-.01 29.75-.02 59.47.22 89.2 1.14v2h-152v16c-2.07-4.15-2.39-6.63-2.68-11.19-.09-1.25-.18-2.51-.26-3.79l-.06-3.02c2-2 5.12-1.13 7.77-1.14"/><path fill="var(--technology-icon-26)" d="M0 68c11.81 9.84 11.81 9.84 13.62 17.67C14.19 97.26 7.63 107.94 1 117H0z"/><path fill="var(--technology-icon-27)" d="M107.605 32.902h2.54c2.68.01 5.36.02 8.04.04 1.82 0 3.64 0 5.45.01 4.46.01 8.91.03 13.36.05.17.49.17.49 1 3h-40l-2 5-3 4c-.5 2.91-.5 2.91-.69 6.26-.08 1.2-.15 2.4-.23 3.64-.07 1.25-.13 2.5-.2 3.79-.15 2.48-.29 4.96-.45 7.44-.06 1.1-.11 2.21-.18 3.34-.25 2.53-.25 2.53-1.25 3.53-2.36.11-4.73.15-7.1.17-.73.02-.73.02-4.42.08q-4.635.06-9.27.09c-1.46.03-2.93.05-4.44.08-.67.01-.67.01-4.07.05-4.18.6-6.4 1.95-9.7 4.53 3.4-6.8 3.4-6.8 7-8 2.21-.15 4.43-.25 6.64-.32 1.3-.04 2.6-.08 3.94-.13 1.35-.04 2.71-.07 4.11-.11 1.37-.05 2.74-.09 4.15-.14l10.16-.3c.02-.69.03-1.38.05-2.09.07-3.16.17-6.32.27-9.47.02-1.09.04-2.18.07-3.3.24-7.19.61-13.29 6.11-18.52 4.69-3.05 8.61-2.74 14.11-2.72"/><path fill="var(--technology-icon-28)" d="m53 72 2 1c-.33.5-.33.5-2 3l4-3c3.23-.29 3.23-.29 6.75-.19 1.17.03 2.34.06 3.55.08.89.04 1.78.07 2.7.11v3l-5.88 1.5c-.54.14-.54.14-3.3.84C58 79 58 79 56 79c-3.29 3.29-3.39 3.75-3.66 8.11-.07 1-.14 2.01-.22 3.04l-.18 3.16c-.79 12.51-.79 12.51-2.94 17.69-.88.04-1.76.07-2.67.11-.58.04-.58.04-3.52.2-1.15.06-2.29.12-3.48.18-3.56.54-5.5 1.31-8.33 3.51-2.05 4.1-2.25 5.79-2.23 10.23 0 1.22 0 2.43.01 3.68l.03 3.84v3.79c.03 6.23.22 12.29 1.19 18.46-5.63-5.63-4.18-13.33-4.19-20.88l-.03-3.51c-.03-13.64-.03-13.64 3.97-18.92C35.2 107.6 40.39 107.93 47 108c-.02-.75-.03-1.5-.05-2.28-.06-3.42-.1-6.85-.14-10.28-.02-1.18-.05-2.37-.07-3.58-.06-6.3-.02-11.28 3.26-16.86z"/><path fill="var(--technology-icon-29)" d="M35 120c3.57 3.57 2.69 9.15 3 14l1-12c27.06-.17 27.06-.17 164-1l-1 2c-26.4.17-26.4.17-160 1-1 13-1 13 0 16 .1 1.61.21 3.22.31 4.88.46 5.81 2.05 10.97 3.95 16.47C47 164 47 164 46 166c-.41-.77-.82-1.54-1.24-2.34l-1.64-3.04c-.26-.49-.26-.49-1.61-3.02C40 155 40 155 38 153c-2.78-10.95-3.41-21.75-3-33"/><path fill="var(--technology-icon-30)" d="m92 81 2 1v4c2-1 2-1 4-4v30h-2l-1 5c.33.16.33.16 2 1H63l-1-5h29z"/><path fill="var(--technology-icon-31)" d="M93 142c2.87 1.79 4.49 2.98 6 6 .38 3.81.38 3.81 0 8-2.44 2.94-2.44 2.94-5 5l-1 1c-7.12.71-7.12.71-10.94-2.38-3.21-4.09-3.41-6.4-3.06-11.62 3.26-6.81 6.69-6.49 14-6"/><path fill="var(--technology-icon-32)" d="M185 14c6 6 6 6 6.13 9.5-.03 20.3-.03 20.3-3.13 26.5-.2 2.58-.2 2.58-.12 5.25L188 60h-2v10h-1c-.04-1.55-.07-3.11-.11-4.71-.07-2.03-.14-4.07-.2-6.1-.03-1.03-.05-2.05-.07-3.11-.02-.49-.02-.49-.11-2.97-.02-.91-.05-1.82-.08-2.75C184 48 184 48 181 45c-2.91-.43-2.91-.43-6.42-.51-1.25-.04-2.51-.07-3.8-.11-1.31-.02-2.62-.04-3.97-.07-1.32-.03-2.64-.07-4-.1q-4.905-.12-9.81-.21l1-3c.87-.03 1.75-.05 2.65-.08q5.895-.165 11.79-.36l4.16-.12 3.96-.12c1.21-.04 2.42-.08 3.66-.11C183 40 183 40 184 39c.16-1.85.25-3.71.32-5.57l.12-3.4.12-3.59c.05-1.19.09-2.38.13-3.6.11-2.95.21-5.89.31-8.84"/><path fill="var(--technology-icon-33)" d="M171.938-.187h3.98c9.66.05 9.66.05 13.08 1.19.17.66.17.66 1 4-.86-.01-1.71-.01-2.6-.02-3.88-.02-7.76-.03-11.65-.05-1.35 0-2.7-.01-4.09-.02-1.29 0-2.59-.01-3.92-.01-1.2-.01-2.39-.01-3.62-.02-3.12.12-3.12.12-7.12 1.12l-2-1h-4l-2 4-3 3c-.52 2.72-.52 2.72-.73 5.98-.08 1.16-.16 2.32-.24 3.52-.07 1.22-.14 2.43-.21 3.69-.09 1.22-.17 2.45-.25 3.71-.2 3.03-.39 6.06-.57 9.1h-3c-.08-4.38-.14-8.75-.18-13.13-.03-1.24-.06-2.47-.08-3.75l-.03-3.63c-.02-1.1-.03-2.2-.05-3.33.57-5.32 2.61-8.43 6.34-12.16 8.3-2.3 16.38-2.27 24.94-2.19"/><path fill="var(--technology-icon-34)" d="M26 117c.91 3.62 1.09 6.19 1.03 9.87-.01 1.13-.03 2.26-.04 3.43-.03 2.38-.07 4.75-.12 7.13l-.03 3.44c-.02 1.03-.03 2.06-.05 3.13.4 5.76 2.94 10.76 5.21 16 .6 1.58 1.21 3.17 1.81 4.75 1.9 4.82 4.31 9.24 6.92 13.71C42 181 42 181 42.5 183.54c.58 2.87 1.65 4.57 3.31 6.96.5.73 1.01 1.46 1.52 2.22.55.75 1.1 1.5 1.67 2.28.28.4.28.4 1.71 2.42 2.97 3.34 6.41 5.83 10.04 8.39.7.5 1.39 1.01 2.11 1.52 1.71 1.23 3.42 2.45 5.14 3.67-.33.16-.33.16-2 1v4c-17.8-8.9-30.71-33.86-37-52-3.13-10.46-5.18-20.06-5.19-31l-.03-2.66c-.02-4.84.35-8.85 2.22-13.34"/><path fill="var(--technology-icon-35)" d="M289 120v7c-8.31 3.82-18.03 5.23-27 3v2h-3c-.22.71-.22.71-1.31 4.31C256 141 256 141 253 144c.16-1.49.16-1.49 1-9l3-1v-10c1.41.05 2.82.09 4.28.14 1.88.04 3.77.07 5.66.11.92.03 1.85.07 2.8.1 7.11.1 12.9-4.35 19.26-4.35"/><path fill="var(--technology-icon-36)" d="M186 80c5.29-.06 10.58-.09 15.88-.12l4.57-.06c1.44 0 2.87-.01 4.35-.02l4.04-.03C218 80 218 80 220 82c.23 3.07.23 3.07.2 6.98-.01 1.25-.01 2.5-.02 3.8l-.06 4.84L220 113h-34l-1-3h32V81h-31z"/><path fill="var(--technology-icon-37)" d="M132 43c4 3 4 3 4.47 5.9-.01 1.15-.03 2.3-.04 3.48-.01.63-.01.63-.03 3.79l-.09 3.95c0 .66 0 .66-.03 3.99-.11 9.72-.11 9.72-1.28 10.89-5.64.28-11.29.23-16.94.25l-4.85.06c-1.52.01-3.04.01-4.61.02-.71 0-.71 0-4.27.03-1.1-.12-2.2-.24-3.33-.36l-2-3h33z"/><path fill="var(--technology-icon-38)" d="m175 81 3 2c.37 2.77.37 2.77.36 6.25v3.78c-.01 1.31-.03 2.62-.05 3.97.01 1.31.01 2.62.01 3.97-.05 9.76-.05 9.76-2.32 12.03-3.26.23-3.26.23-7.41.2-1.49-.01-2.97-.02-4.5-.02l-4.71-.06c-1.57 0-3.13-.01-4.75-.02-3.87-.03-7.75-.06-11.63-.1l-1-3 32-1z"/><path fill="var(--technology-icon-39)" d="m181 45 3 2c.36 2.69.36 2.69.33 6.07-.01 1.2-.01 2.41-.02 3.65l-.06 3.84c-.01 1.27-.01 2.54-.02 3.85-.08 9.44-.08 9.44-1.23 10.59-4.97.28-9.96.23-14.94.25l-4.27.06c-1.34.01-2.68.01-4.07.02-.62 0-.62 0-3.75.03L153 75l-2-3h30z"/><path fill="var(--technology-icon-40)" d="M100 43h32l-1 3h-28v25h-3z"/><path fill="var(--technology-icon-41)" d="M151 12h1v25h30V13l2-1v28c-5.13.05-10.25.09-15.38.12l-4.42.06c-.7 0-.7 0-4.22.02l-3.91.03C153 40 153 40 151 38c-.23-2.61-.23-2.61-.2-5.88.01-1.17.02-2.34.02-3.54l.06-3.7c0-1.24.01-2.47.02-3.74.03-3.04.06-6.09.1-9.14"/><path fill="var(--technology-icon-42)" d="M101 75h34v2h-2c.16.66.16.66 1 4l-34-1 2-3z"/><path fill="var(--technology-icon-43)" d="M155.776 9.886c1.21.01 2.42.01 3.67.02 1.3 0 2.61 0 3.95.01.69 0 .69 0 4.17.02 1.38.01 2.75.01 4.17.01 3.42.02 6.84.03 10.26.05v2c-2.66 1.33-4.68 1.12-7.66 1.1-1.12 0-2.24-.01-3.4-.01-1.17-.01-2.35-.02-3.56-.02-1.18-.01-2.37-.01-3.59-.02-2.93-.01-5.86-.03-8.79-.05v23l-3 1-.06-12.93c-.01-1.24-.01-2.47-.02-3.74-.01-1.17-.01-2.34-.01-3.54-.01-1.09-.01-2.17-.02-3.29.16-3.53.33-3.46 3.89-3.61"/><path fill="var(--technology-icon-44)" d="M91 218c9 2 9 2 13.06 3 5.64 1.25 11.31 1.69 17.06 2.12 1.05.09 2.1.18 3.17.27 10.2.81 18.96.13 29.04-1.83C157 221 157 221 159 222v2c-9.25 2.33-18.25 2.33-27.75 2.31-1.55.02-3.11.03-4.71.05-12.9.01-24.43-1.98-36.54-6.36z"/><path fill="var(--technology-icon-45)" d="M62.867 79.886c1.25.01 2.5.01 3.79.02 1.35 0 2.7 0 4.09.01 1.43 0 2.85.01 4.32.02.71 0 .71 0 4.32.01 3.54.02 7.07.03 10.61.05l-1 3-27 2-1 23h-2c-.03-4.48-.04-8.95-.06-13.43l-.03-3.88c0-1.22 0-2.43-.01-3.68 0-1.13-.01-2.25-.01-3.41.16-3.66.3-3.56 3.98-3.71"/><path fill="var(--technology-icon-46)" d="M102.96 80.886c1.29.01 2.59.01 3.92.02.7 0 .7 0 4.23.01.73 0 .73 0 4.45.02 1.48.01 2.95.01 4.47.01 3.66.02 7.31.03 10.97.05l-1 2c-4.45.17-4.45.17-27 1l-1 25-3 1c-.03-4.64-.05-9.29-.06-13.93l-.03-4.03c0-1.26 0-2.52-.01-3.81 0-1.17-.01-2.34-.01-3.54.16-3.77.26-3.65 4.07-3.8"/><path fill="var(--technology-icon-47)" d="M185 81h32l-1 2h-28c.19 11.31.19 11.31.27 14.87.01.92.02 1.85.02 2.81.02.94.03 1.89.05 2.87C188 106 188 106 185 109z"/><path fill="var(--technology-icon-48)" d="M152 45h29l-1 3h-26v22h-2z"/><path fill="var(--technology-icon-49)" d="m93 142 3 2-1 3-3-2-.31 2.31C91 150 91 150 88 153c-3.19.19-3.19.19-6 0l-2 4c-1.53-3.06-1.23-5.62-1-9 3.29-6.87 6.67-6.3 14-6"/><path fill="var(--technology-icon-50)" d="m132 81 2 1v30h-34l-1-2 32-1z"/><path fill="var(--technology-icon-51)" d="M35 120c3.31 3.31 2.72 7.96 3.06 12.44.83 10.22.83 10.22 1.94 13.56v-9c2.43 3.65 2.28 6.52 2.58 10.8.62 4.72 2.13 9.06 3.68 13.55C47 164 47 164 46 166c-.41-.77-.82-1.54-1.24-2.34l-1.64-3.04c-.26-.49-.26-.49-1.61-3.02C40 155 40 155 38 153c-2.78-10.95-3.41-21.75-3-33"/><path fill="var(--technology-icon-52)" d="m90 81 2 1c.03 4.81.05 9.62.06 14.44l.03 4.16c0 1.31 0 2.61.01 3.96 0 1.21.01 2.42.01 3.66C92 111 92 111 91 112c-2.29.09-4.59.11-6.88.1-.7 0-.7 0-4.23-.01-.73-.01-.73-.01-4.45-.03-1.48 0-2.95-.01-4.47-.01-3.66-.01-7.31-.03-10.97-.05l-1-2c4.95-.16 4.95-.16 30-1z"/><path fill="var(--technology-icon-53)" d="M259 73c2 0 2 0 4.25 2.06 7.78 8.32 7.78 8.32 10.31 12.56C275 90 275 90 277.69 92.69 280 95 280 95 280 97l-9 3c-.11-.73-.11-.73-.69-4.44C268.64 87.21 264.47 81.4 259 75z"/><path fill="var(--technology-icon-54)" d="M63.813 72.75c.58.02.58.02 3.52.11.88.05 1.76.09 2.67.14v3l-5.88 1.5c-1.09.28-2.18.56-3.3.84-2.82.66-2.82.66-4.82.66-3.33 3.33-3.41 3.89-3.73 8.32-.08 1.03-.16 2.06-.25 3.12-.07 1.07-.14 2.14-.21 3.25-.08 1.08-.16 2.16-.25 3.28-.2 2.68-.38 5.35-.56 8.03h-1c-.06-3.35-.1-6.71-.13-10.06-.01-.95-.03-1.89-.05-2.86-.09-12.59-.09-12.59 4.38-17.5 3.46-1.95 5.67-1.99 9.61-1.83"/><path fill="var(--technology-icon-55)" d="m148 3 3 1c-.4.3-.4.3-2.44 1.81C146 8 146 8 145 11c-.15 2.06-.25 4.13-.32 6.2l-.12 3.66-.12 3.83c-.05 1.27-.09 2.55-.13 3.86-.11 3.15-.21 6.3-.31 9.45h-3c-.09-4.37-.14-8.75-.19-13.12-.02-1.24-.05-2.48-.07-3.76l-.03-3.63c-.02-1.1-.03-2.2-.05-3.33.4-3.7 1.35-6.03 3.34-9.16z"/><path fill="var(--technology-icon-56)" d="M43 189c2.58 2.51 4.98 4.97 7.19 7.81 3.22 3.65 6.66 6.24 10.62 9.07.7.49 1.39.99 2.1 1.5C64.6 208.6 66.3 209.8 68 211l-2 1v4c-10.21-5.1-17.02-15.59-23-25z"/><path fill="var(--technology-icon-57)" d="M194 70c5.12-.03 10.25-.05 15.38-.06l4.42-.03c1.4 0 2.79 0 4.22-.01 1.29 0 2.58-.01 3.91-.01C225 70 225 70 227 71v5l-3-2c-3.19-.32-3.19-.32-7.07-.41l-4.21-.12c-.73-.02-.73-.02-4.41-.09l-4.44-.12c-3.62-.1-7.25-.18-10.87-.26z"/><path fill="var(--technology-icon-58)" d="M273 88c.78.19 1.57.37 2.38.56 4.72.57 8.9.01 13.62-.56v8c-1.49.16-1.49.16-9 1v-2l-3-1c-1.4-1.96-2.74-3.95-4-6"/><path fill="var(--technology-icon-59)" d="M37 119h2v2h56v1H39v16c-2.07-4.14-2.4-6.63-2.69-11.19-.08-1.25-.17-2.5-.26-3.79-.02-1-.03-1.99-.05-3.02z"/><path fill="var(--technology-icon-60)" d="M249 68h2c-.66 5.11-2.88 9.36-5 14-1.31 3.92-1.35 7.57-1.56 11.69-.09 1.55-.17 3.1-.26 4.7-.06 1.19-.12 2.38-.18 3.61-2.78-2.78-2.29-5.17-2.32-8.94 0-.91 0-1.81.01-2.75-.02-.88-.03-1.77-.05-2.68-.01-7.84 1.88-13.79 7.36-19.63"/><path fill="var(--technology-icon-61)" d="M257 124c3 1 3 1 4 3 3.92 1.31 7.57 1.35 11.69 1.56 1.55.09 3.1.17 4.7.26l3.61.18v1c-2.23.2-4.46.38-6.69.56-.62.05-.62.05-3.76.32-3.11.1-5.56-.11-8.55-.88v2h-3c-.22.71-.22.71-1.31 4.31C256 141 256 141 253 144c.16-1.49.16-1.49 1-9l3-1z"/><path fill="var(--technology-icon-62)" d="M241 81h1l1 19c.12-2.41.25-4.83.38-7.31.37-7.31.37-7.31 2.62-10.69-.01 1.52-.02 3.04-.04 4.6 0 2.01-.01 4.02-.02 6.02l-.03 3.03c-.01 4.9.05 9.54 1.09 14.35l-2-1v-2h-3c-3.08-8.07-2.97-17.63-1-26"/><path fill="var(--technology-icon-63)" d="M53 182c4.25 1.06 4.94 1.67 7.75 4.75 2.73 2.86 5.26 5.03 8.69 7C73 196 73 196 74 200l3 3c-9.14-3.31-16.71-10.75-23-18z"/><path fill="var(--technology-icon-64)" d="M160.61 2.902c.74 0 .74 0 4.47.01l4.67.03a4432 4432 0 0 1 16.25.06v1c-.74.02-1.47.05-2.23.07-3.34.12-6.68.24-10.02.37-1.16.03-2.32.07-3.51.11-.56.03-.56.03-3.38.13-.51.02-.51.02-3.11.11-2.75.21-2.75.21-6.75 1.21l-2-1h-4l-2 4-3 3c-.51 4.01-.51 4.01-.69 8.69-.06 1.55-.13 3.1-.2 4.69-.03 1.2-.07 2.39-.11 3.62h-1c-.08-2.9-.14-5.79-.19-8.69-.03-1.61-.07-3.23-.1-4.89.35-5.36 1.58-7.71 5.29-11.42 4.09-1.03 7.4-1.12 11.61-1.1"/><path fill="var(--technology-icon-65)" d="M260 76c6.63 5.46 10.34 13.44 11.88 21.75L272 101l-5 2c0-.81-.01-1.62-.01-2.46-.27-7.66-1.62-12.8-5.71-19.3C260 79 260 79 260 76"/><path fill="var(--technology-icon-66)" d="m256 56 1 3c-1.42.14-2.85.29-4.31.44C248 60 248 60 245 61v3c-.72.68-1.44 1.36-2.19 2.06-3.69 3.85-5.61 8.13-7.81 12.94h-1c.16-7.17 3.71-12.49 8-18 4.99-4.34 7.38-5.12 14-5"/><path fill="var(--technology-icon-67)" d="M256 57c3.63 1.27 6.07 2.68 8.85 5.34.69.65 1.37 1.3 2.08 1.97.7.68 1.41 1.36 2.13 2.07l2.15 2.03c1.94 1.86 3.86 3.72 5.79 5.59.82.78 1.65 1.55 2.5 2.35C281 78 281 78 281 80h-2v-2h-4a347 347 0 0 1-4-6 67 67 0 0 0-11.44-9.19C257 61 257 61 256 57"/><path fill="var(--technology-icon-68)" d="m98 110 2 1c2.47.16 4.94.25 7.41.32l4.5.12 4.71.12c.79.02.79.02 4.75.13 3.87.11 7.75.21 11.63.31v1h-31v2h2l1 3c-7.75.12-7.75.12-10-1l1-5h2z"/><path fill="var(--technology-icon-69)" d="M89 83v1c-1.46.14-2.93.29-4.44.44C80 85 80 85 79 86c-3.63.07-7.25 0-10.88-.06C65 86 65 86 64 87c-.4 3.52-.75 7.03-1.06 10.56-.09 1-.18 2-.28 3.02L62 108h-1c-.03-3.81-.05-7.62-.06-11.44l-.03-3.3c0-1.03 0-2.07-.01-3.13 0-.96-.01-1.92-.01-2.91C61 85 61 85 62 84c8.97-1.05 17.98-1.13 27-1"/><path fill="var(--technology-icon-70)" d="M102 41c5.06-.17 10.12-.28 15.19-.38 1.43-.05 2.87-.1 4.35-.15l4.19-.06 3.86-.09c4.57.91 5.83 2.91 8.41 6.68 1.38 2.76 1.1 5.05 1.06 8.12-.01 1.1-.02 2.2-.02 3.33-.02.84-.03 1.68-.04 2.55h-3c-.02-.52-.02-.52-.11-3.18-.07-1.36-.13-2.73-.2-4.13-.06-1.36-.12-2.72-.18-4.12C135 46 135 46 132 43c-3.09-.43-3.09-.43-6.86-.51-.67-.02-.67-.02-4.07-.11-1.4-.02-2.81-.04-4.26-.07-1.41-.03-2.83-.07-4.29-.1-3.51-.08-7.01-.15-10.52-.21z"/><path fill="var(--technology-icon-71)" d="M142 81h13l-1 2c-1.49.17-1.49.17-9 1l-1 24h-2z"/><path fill="var(--technology-icon-72)" d="M39 154c3.71 3.2 5.25 6.46 7 11h3c1.03 2.12 2.05 4.25 3.06 6.38l1.73 3.58c.4 1 .8 2.01 1.21 3.04l-1 2c-3.1-3.51-4.74-6.49-6-11l-5-1c-.67-1.96-1.34-3.92-2-5.88l-1.12-3.3C39 156 39 156 39 154"/><path fill="var(--technology-icon-73)" d="M157 225c-3.92 3.92-7.69 3.97-13 4l-4-1c-.33.16-.33.16-2 1l-4-1c-1.67.32-3.34.65-5 1l-2-1c-2.04-.23-4.08-.41-6.12-.56-.55-.04-.55-.04-3.33-.26-.84-.06-1.68-.12-2.55-.18v-1c5.5-.17 11-.33 16.5-.5.78-.02.78-.02 4.71-.14 1.51-.05 3.02-.09 4.57-.14 1.38-.04 2.77-.09 4.19-.13 4.01-.09 8.02-.11 12.03-.09"/><path fill="var(--technology-icon-74)" d="M143 80h32l-1 3h-20v-1l-11-1z"/><path fill="var(--technology-icon-75)" d="M189 2c3.53 1.77 5.21 2.97 7.89 5.7.36.35.36.35 2.15 2.16.36.38.36.38 2.21 2.26l2.26 2.29c1.83 1.86 3.66 3.72 5.49 5.59l-1 3c-.69-.71-1.37-1.42-2.08-2.15l-2.73-2.79c-.9-.91-1.79-1.83-2.71-2.77C198 13 198 13 195 12l-1-3h-3c-2-4-2-4-2-7"/><path fill="var(--technology-icon-76)" d="M270 71c1.71 1.62 3.37 3.29 5 5v2h4v2l3-1 2 4-2 4-4 1c-1.15-2.27-2.29-4.54-3.44-6.81-.64-1.27-1.27-2.53-1.93-3.83C271 74 271 74 270 71"/><path fill="var(--technology-icon-77)" d="M78.813 77.375c1.05.04 2.1.09 3.18.13 7.74.36 7.74.36 10.01 1.49-.33.99-.66 1.99-1 3-.33-.32-.66-.65-1-1-2.29-.15-4.59-.25-6.88-.31-1.4-.04-2.79-.09-4.23-.13l-4.46-.12c-1.47-.04-2.94-.08-4.46-.13-3.66-.1-7.32-.21-10.97-.31.33-.65.66-1.31 1-2 6.24-1.43 12.47-.94 18.81-.62"/><path fill="var(--technology-icon-78)" d="M147.684 82.886c1.17.01 2.34.01 3.54.02 1.26 0 2.52 0 3.82.01.66 0 .66 0 4.02.02 1.33.01 2.66.01 4.03.01 3.3.02 6.6.03 9.91.05v1c-.86.06-1.72.12-2.6.19-9.79.71-9.79.71-14.28 1.44-3.12.37-3.12.37-10.12-.63l-1 17h-1c-.03-2.98-.05-5.95-.07-8.93 0-.85-.01-1.7-.02-2.58-.01-2.16.03-4.32.09-6.49 1-1 1-1 3.68-1.11"/><path fill="var(--technology-icon-79)" d="M159.54 7.902c1.3 0 2.6.01 3.95.01.68 0 .68 0 4.14.03a3475 3475 0 0 1 14.37.06l2 4-2-1c-2.14-.1-4.29-.13-6.43-.14h-3.91c-1.35 0-2.7.01-4.1.01-1.35 0-2.69-.01-4.08-.01h-3.91c-1.19.01-2.38.01-3.6.01-2.97.13-2.97.13-5.97 1.13l1-3c2.87-1.44 5.34-1.11 8.54-1.1"/><path fill="var(--technology-icon-80)" d="M26 121h2c.01.37.01.37.08 2.26.11 3.41.24 6.83.36 10.24l.12 3.55c.22 6.04.56 11.96 1.44 17.95-3.75-3.75-3.92-5.81-4.11-10.95 0-1.07.01-2.13.01-3.23.01-1.15.01-2.31.01-3.5l.03-3.63c0-1.22.01-2.44.01-3.69.01-3 .03-6 .05-9"/><path fill="var(--technology-icon-81)" d="M88.688 144.813c.55.03.55.03 3.31.19-.55 4.08-.91 4.91-4 8-3.19.19-3.19.19-6 0v-5c3-3 3-3 6.69-3.19"/><path fill="var(--technology-icon-82)" d="M289 96v3c-.42.09-.42.09-2.53.55-6.64 1.49-13.05 3.17-19.47 5.45 6.48-7.05 12.6-9.22 22-9"/><path fill="var(--technology-icon-83)" d="M99 82c4.74 4.74 3.05 15.93 3.06 22.38L102 109l-3 1z"/><path fill="var(--technology-icon-84)" d="M102 47h1v24h-3c-.05-2.69-.09-5.37-.12-8.06-.02-.75-.02-.75-.08-4.54.19-4.15.88-7.48 2.2-11.4"/><path fill="var(--technology-icon-85)" d="M221 84h2c1.42 17.61 1.42 17.61 0 26l-2 1z"/><path fill="var(--technology-icon-86)" d="M189 114h30l-1 2c-5.68 1.58-11.56.89-17.38.56-1.02-.05-2.04-.1-3.09-.16-2.51-.12-5.02-.26-7.53-.4z"/><path fill="var(--technology-icon-87)" d="m42.188 108.938 3.86.03c.48 0 .48 0 2.95.03v2l-2.67.12c-1.16.06-2.32.13-3.52.2-1.14.05-2.29.11-3.48.17-3.54.54-5.49 1.36-8.33 3.51-1.81 3.19-1.81 3.19-3 6h-1c-.31-2.68-.31-2.68 0-6 4.68-5.68 8.07-6.13 15.19-6.06"/><path fill="var(--technology-icon-88)" d="M153 10h29v2c-4.24 2.12-9.84 1.23-14.5 1.25l-3.54.06c-1.11.01-2.22.01-3.37.02l-3.1.03c-.82-.12-1.64-.24-2.49-.36z"/><path fill="var(--technology-icon-89)" d="M35 120c2.85 2.85 2.41 4.99 2.63 8.98.09 1.39.17 2.78.26 4.22.08 1.46.15 2.92.23 4.42.09 1.47.18 2.94.27 4.46.21 3.64.41 7.28.61 10.92-5.05-10.09-4.25-21.98-4-33"/><path fill="var(--technology-icon-90)" d="M139 91h1v19l-5 1c-.19-3.38-.19-3.38 0-7l3-2q.12-4.5 0-9z"/><path fill="var(--technology-icon-91)" d="M185 81c3.32 3.32 3.38 3.62 3.4 8 0 .97.01 1.94.01 2.94l-.03 3.06.03 3.06c0 .97-.01 1.94-.01 2.94 0 .89-.01 1.77-.01 2.69C188 106 188 106 185 109z"/><path fill="var(--technology-icon-92)" d="M187 16c4 4 4 4 4.53 6.91l-.03 3.15.03 3.16C191 32 191 32 187 35z"/><path fill="var(--technology-icon-93)" d="M289 120v5l-7 1v2h-3v-2h-15v-1c.91-.03 1.81-.05 2.75-.08 7.61-.35 15.44-4.92 22.25-4.92"/><path fill="var(--technology-icon-94)" d="M48 177c3.31 3.2 6.39 6.55 9.44 10 3.29 3.69 6.63 6.98 10.56 10l-2 2c-7.11-5.9-13.15-12.08-18-20z"/><path fill="var(--technology-icon-95)" d="m134 75 1 2h-2l1 4-3-1c-2.06-.15-4.13-.25-6.2-.32a4547 4547 0 0 0-7.49-.24c-1.27-.05-2.55-.09-3.86-.13-3.15-.11-6.3-.21-9.45-.31v-1c3.3-.17 3.3-.17 20-1v-1z"/><path fill="var(--technology-icon-96)" d="M249 67h3c1.44 2.19 1.44 2.19 3 5 1.31 1.68 2.64 3.36 4 5l-1 2c-.56-.68-1.11-1.36-1.69-2.06-.76-.64-1.52-1.28-2.31-1.94-2.75.25-2.75.25-5 1l-1 5h-2c1.21-4.66 2.72-8.75 5-13z"/><path fill="var(--technology-icon-97)" d="M105.225 82.886c.96.01 1.92.01 2.9.02.52 0 .52 0 3.14.01 1.09 0 2.18.01 3.3.02.54 0 .54 0 3.31.01 2.71.02 5.42.03 8.13.05v1c-1.09.06-2.18.12-3.29.19-.72.04-.72.04-4.34.25-.71.04-.71.04-4.29.25-3.42.26-6.71.68-10.08 1.31l.12 4.88c.07 2.74.07 2.74-.12 5.12l-2 2c-.03-2.31-.05-4.62-.07-6.93l-.03-3.91c.12-4.11.12-4.11 3.32-4.27"/><path fill="var(--technology-icon-98)" d="M247 114v3c-6.51 3.31-10.7 5.14-18 5 3-2 3-2 6-2v-2z"/><path fill="var(--technology-icon-99)" d="M68 199c4.3 1.54 7.95 3.71 11.81 6.12 1.16.73 2.33 1.45 3.52 2.2.88.55 1.76 1.11 2.67 1.68-3.99 1.33-6.03-.02-9.7-1.75-3.16-1.72-5.73-3.75-8.3-6.25z"/><path fill="var(--technology-icon-100)" d="M256 125h1v9l-4 1-1 4c-2.56 2.25-2.56 2.25-5 4 1.35-3.65 3.01-6.83 5.06-10.12C253.73 130.2 255 128 256 125"/><path fill="var(--technology-icon-101)" d="M32 170h2c3.46 6.28 6.84 12.57 10 19l-2 1c-1.3-2.2-2.59-4.41-3.88-6.62-.71-1.23-1.43-2.46-2.17-3.73-1.71-3.2-2.93-6.18-3.95-9.65"/><path fill="var(--technology-icon-102)" d="M245 82h1c-.01 1.52-.02 3.04-.04 4.6 0 2.01-.01 4.02-.02 6.02l-.03 3.03c-.01 4.9.05 9.54 1.09 14.35l-2-1v-2h-2c.14-3.6.29-7.21.44-10.81l.12-3.11.12-2.97c.04-.91.08-1.82.11-2.75C244 85 244 85 245 82"/><path fill="var(--technology-icon-103)" d="M100 149h1c.29 4.97.25 8.1-3 12-4.07 2.62-7.18 3.55-12 3l-2-2c1.38-.06 2.76-.12 4.19-.19 5.29-.89 6.74-1.53 9.81-5.81 1.31-3.81 1.31-3.81 2-7"/><path fill="var(--technology-icon-104)" d="M1 70c3.86 1.93 5.18 3.04 7.75 6.31.61.76 1.23 1.52 1.86 2.3C12 81 12 81 12 86c-1.67-2.23-3.34-4.45-5-6.69C5 77 5 77 2 76z"/><path fill="var(--technology-icon-105)" d="M259 73c2 0 2 0 4.25 2.06 3.03 3.23 5.9 6.56 8.75 9.94l-1 2-1-1-2 2c-.4-.69-.8-1.37-1.21-2.08-.53-.9-1.06-1.8-1.6-2.73-.52-.9-1.05-1.79-1.58-2.71C262 78 262 78 259 75z"/><path fill="var(--technology-icon-106)" d="M149 4h2c-1 4-1 4-3.02 5.7-2.98 3.46-2.59 6.56-2.73 11.05-.06 1.54-.11 3.08-.17 4.67-.03 1.18-.05 2.36-.08 3.58h-1c-.08-2.9-.14-5.79-.19-8.69-.03-1.61-.07-3.22-.1-4.88.35-5.37 1.58-7.72 5.29-11.43"/><path fill="var(--technology-icon-107)" d="M43 189c3.59 3.49 6.8 7.15 10 11 1.32 1.35 2.64 2.69 4 4-.33.16-.33.16-2 1-5.27-3.89-8.85-8.31-12-14z"/><path fill="var(--technology-icon-108)" d="M63 191c3.59 1.33 6.88 2.75 10 5l1 4 3 3c-6.46-2.03-9.98-6.79-14-12"/><path fill="var(--technology-icon-109)" d="m92 145 3 1c-.33 2.99-.9 4.85-2.56 7.38C90 155 90 155 85.75 154.75c-1.24-.25-2.47-.5-3.75-.75v-1l3.38-.88C89 151 89 151 91 149z"/><path fill="var(--technology-icon-110)" d="M187 231h11c-2.28 2.28-3.94 3.05-7 4l-4-1zm24-19 1 3 4 2-1 2-9-3v-3c.82.16.82.16 5 1z"/><path fill="var(--technology-icon-111)" d="M289 137v6l-3 1-1-3h-2v-2c4.88-2 4.88-2 6-2"/><path fill="var(--technology-icon-110)" d="M225 208c2.69.88 2.69.88 5 2l-1 2-2-1-1 2-4-1v-2z"/><path fill="var(--technology-icon-112)" d="M219 212h2l-1 6h-3c.88-4.88.88-4.88 2-6m6-12-2 4h-2l-1-3c3-1 3-1 5-1"/><path fill="var(--technology-icon-113)" d="M135 242h7v1h-7z"/><path fill="var(--technology-icon-110)" d="M216 219h4v2l-3 1zm-16 10 2 1h-3z"/><path fill="var(--technology-icon-114)" d="M212 220h2v2h-2z"/><path fill="var(--technology-icon-110)" d="M223 214h2v2h-2z"/><path fill="var(--technology-icon-115)" d="m219 199 2 1h-3z"/><path fill="var(--technology-icon-116)" d="m223 196 1 2-2-1z"/><path fill="var(--technology-icon-117)" d="m144 242 2 1Z"/><path fill="var(--technology-icon-118)" d="m220 207 2 1Z"/><path fill="var(--technology-icon-112)" d="m225 198 2 1Z"/></svg>