<svg role="img" aria-label="Tecnologías" style="--header-icon-0:#040100;--header-icon-1:#F65A01;--header-icon-2:#F75A01;--header-icon-3:#F35801;--header-icon-4:#230900;--header-icon-5:#1C0400;--header-icon-6:#040000;--header-icon-7:#000000" viewBox="0 0 321 256" xmlns="http://www.w3.org/2000/svg" width="321" height="256"><path fill="var(--header-icon-0)" d="m199.42 6.896 3.2-.06c.93-.03 1.86-.05 2.81-.08 4.51.42 7.07 2.45 10.57 5.24 2.97 4.46 2.39 8.77 2 14-1 3.69-1 3.69-2 6h-2c-1.03 3.79-2.05 7.59-3.06 11.38-.3 1.08-.59 2.16-.89 3.27-.28 1.03-.55 2.06-.83 3.13-.26.95-.52 1.9-.78 2.89-.44 2.33-.44 2.33.56 4.33 6-6.62 6-6.62 6-10h2l1-2 4-3 1-3c4.22-2.42 8.23-2.37 13-2 2.69 1.25 2.69 1.25 5 3 .83.62 1.65 1.24 2.5 1.88 2.65 2.25 5.05 4.66 7.5 7.12 2.05 2.03 4.1 4.05 6.15 6.08 6.04 5.95 12.06 11.91 18.07 17.88q5.445 5.415 10.92 10.8c3.54 3.49 7.06 6.98 10.58 10.49 1.34 1.33 2.68 2.65 4.03 3.98 1.88 1.84 3.75 3.71 5.62 5.57 1.06 1.06 2.13 2.11 3.23 3.2 2.54 3.18 3.17 4.99 3.4 9h2c2.21 4.42 1.43 10.2 1 15-1.05 2.97-2.38 5.28-4 8v3l-4 2c-1.43 1.5-2.8 3.04-4.12 4.63a95 95 0 0 1-3.88 4.37h-2v2c-1.64 1.59-1.64 1.59-3.81 3.38-3.73 3.08-6.62 5.9-8.19 10.62-.9.45-1.79.9-2.72 1.36-3.71 1.86-5.94 3.99-8.83 6.97l-3.05 3.11c-1.04 1.08-2.08 2.15-3.15 3.25-2.07 2.13-4.15 4.26-6.23 6.39-.92.94-1.83 1.89-2.78 2.86-2.24 2.06-2.24 2.06-4.24 2.06l-2 4c-1.91 1.86-1.91 1.86-4.06 3.63-3.84 3.18-3.84 3.18-4.94 5.37l-3 1v2c-3.56 2.38-5.74 2.79-10 3-4.93-1.7-6.48-3.59-9-8-3.04-2.76-6.17-5.11-9.56-7.43-3.45-2.58-5.75-5.24-8.44-8.57-.91-.7-1.81-1.4-2.75-2.12-2.25-1.88-2.25-1.88-3.25-5.88l-4-2c-.19-4.31-.19-4.31 0-9 1.67-1.66 3.33-3.33 5-5 .91-1.09 1.82-2.18 2.75-3.31 2.93-3.32 5.8-5.94 9.25-8.69 6.75-5.62 6.75-5.62 9-9v-2c1.61-1.55 1.61-1.55 3.75-3.31 3.17-2.68 5.67-5.43 8.25-8.69l3-1c3-4 3-4 2.69-7.25-.23-.9-.46-1.81-.69-2.75-.72-.1-1.44-.2-2.19-.31-3.2-.78-5.26-1.57-7.81-3.69-.31-3.18-.31-3.18 0-6l-4-1c-1.4-1.95-2.72-3.96-4-6-3.68-4.63-7.08-7.79-12-11-2.31-2.68-2.31-2.68-4-5l-1-1-8 29h-2c-.7 2.42-1.38 4.83-2.06 7.25-.38 1.35-.77 2.7-1.16 4.08-.78 3.67-.78 3.67.22 7.67-.52 2.59-1.17 5.15-1.87 7.69-.21.75-.21.75-1.24 4.56l-1.33 4.75c-.85 3.11-1.71 6.21-2.56 9.32-.19.69-.19.69-1.16 4.17-.84 3.51-.84 3.51-.84 7.51h-2l1 4c-1.04 3.17-2.54 5.99-4 9h-2c-.85 3-1.68 6-2.5 9-.24.84-.48 1.68-.72 2.55-1.07 3.94-1.78 7.23-1.76 11.35-.03 5.53-1.39 10.42-2.83 15.73-.26 1.01-.52 2.02-.79 3.06-2.65 9.97-2.65 9.97-5.4 14.31l-3 1v4l-4.53-.03-5.97-.03c-.98-.01-1.96-.02-2.98-.02-5.61-.02-10.95.37-16.52 1.08-2.44-.01-4.88-.09-7.31-.25-1.19-.06-2.39-.13-3.62-.2-3.07-.55-3.07-.55-6.07-3.55l-4-2c-3-3-3-3-3.25-6.5.25-3.5.25-3.5 1.25-6.5h3q.33-2.61.63-5.25c.05-.48.05-.48.35-2.95.02-2.8.02-2.8-1.98-6.8-3.87-1.37-3.87-1.37-8-2l-4 2c-8.24.58-8.24.58-13-3-1.05-.31-2.1-.61-3.19-.93-.93-.35-1.85-.7-2.81-1.07l-1-4c-3.31-4.74-6.66-9.14-11-13h-2v-2h-2c-1.62-1.68-1.62-1.68-3.44-3.87-2.14-2.59-3.73-4.24-6.56-6.13l-2 1v-2h-2c-1-4-1-4-1-7-3-2-3-2-5-2-1.71-1.62-3.37-3.3-5-5-.87-.83-1.74-1.67-2.64-2.53-.86-.84-1.72-1.67-2.61-2.53-.87-.84-1.74-1.67-2.64-2.53-2.11-2.41-2.11-2.41-3.11-6.41-.7-.26-1.4-.53-2.12-.81-6.71-2.77-10.74-8.91-13.88-15.19-2.23-6.68-1.95-13.87 1.06-20.25 2.74-4.83 6.05-8.79 9.94-12.75h2v-2a322 322 0 0 1 5.57-4.85c3.58-3.17 6.84-6.64 10.13-10.11 2.3-2.04 2.3-2.04 6.3-3.04 2.31-1.99 4.53-4.09 6.69-6.25l3.51-3.45c2.6-3.05 3.6-4.38 3.8-8.3h3l1-4 4-2c2.56-2.41 5.04-4.85 7.5-7.37.33-.34.33-.34 2.01-2.04 2.61-2.65 5.22-5.3 7.77-8 2.7-2.49 5.17-2.66 8.78-3.21 5.24.66 5.96 1.07 9.57 4.49.87.82 1.73 1.64 2.63 2.48.9.88 1.81 1.75 2.74 2.65.45.43.45.43 2.73 2.62 2.76 2.67 5.49 5.36 8.21 8.07.46.46.46.46 2.82 2.76.89.89 1.79 1.78 2.71 2.69.4.4.4.4 2.42 2.4 2.84 3.32 5.25 6.54 4.92 11.03-.13.4-.13.4-.81 2.43-.1.41-.1.41-.62 2.44-1.38 2.56-1.38 2.56-4.88 5.5-3.52 3.08-4.54 4.59-5.5 9.06h-4l-1 2c-1.95 1.78-3.97 3.46-5.99 5.15-2.01 1.85-2.01 1.85-5.01 5.85-1.67 1.67-3.33 3.34-5 5l-2 3h-2c-3 4-3 4-4 6l-1 1c-.69 2-1.36 4-2 6 .66.17.66.17 4 1l2 4 4 2c3.22 2.76 3.94 3.75 5 8 1.93 2.33 1.93 2.33 4.31 4.69.78.79 1.56 1.58 2.37 2.39 2.32 1.92 2.32 1.92 6.32 2.92v2l4 2c.5.33.5.33 3 2h2l4-13h2c1.2-4.41 2.39-8.83 3.56-13.25.35-1.25.69-2.5 1.04-3.8.32-1.2.64-2.41.97-3.65.15-.55.15-.55.9-3.36.53-2.94.53-2.94-.47-6.94.56-2.66 1.24-5.29 1.98-7.91.23-.78.23-.78 1.34-4.75.48-1.65.95-3.31 1.43-4.96.46-1.63.92-3.26 1.38-4.9 2.23-7.84 4.5-15.67 6.87-23.48h2l-.06-3.43c.06-3.57.06-3.57 1.06-4.57.07-.59.07-.59.44-3.57.92-7.26 2.94-14.23 4.81-21.3.38-1.5.77-3 1.16-4.55 2.12-8.06 4.26-15.43 8.59-22.58 3.99-1.99 5.77-2.28 10.09-2.41l3.63-.12 3.78-.09 3.69-.12c4.74-.14 9.49-.22 14.23-.36M170 8.996v1h39v-1zm-8 6 1 2Zm54 2v6h1v-6zm-55 1 1 3Zm-1 3 1 3Zm55 3 1 4Zm-56 1 1 3Zm-1 4 1 3Zm-1 3 1 4Zm-1 4 1 3Zm-70 2v1h6v-1zm144 0v1h6v-1zm-75 2 1 3Zm-1 3 1 3Zm-1 3 1 4Zm-1 5 1 3Zm-1 3 1 2Zm-1 4 1 3Zm-26 12v9h1v-9zm22 5 1 3Zm-1 4 1 3Zm-1 3 1 3Zm-1 4 1 2Zm55 2 1 2Zm-56 1 1 3Zm55 3 1 2Zm-56 1 1 3Zm55 2 1 3Zm-56 1 1 4Zm-1 4 1 3Zm56 0 1 3Zm-57 3 1 4Zm56 1 1 4Zm-57 3 1 3Zm56 1 1 3Zm-57 2 1 4Zm-126 1 1 2Zm125 3 1 3Zm-127 1 1 2Zm-1 2 1 3Zm307 3v9h1v-9zm-308 4 1 3Zm1 5 1 3Zm306 1 1 3Zm-305 3 1 2Zm178 0-1 7 2-3zm126 0 1 2Zm-128 7 1 3Zm-1 3 1 4Zm-1 4 1 3Zm-1 4 1 3Zm-56 1 1 3Zm55 2 1 4Zm-56 2 1 3Zm55 3 1 3Zm-56 1 1 3Zm55 3 1 2Zm-56 1 1 2Zm55 3 1 2Zm-1 3 1 2Zm19 2v6h1v-6zm-20 2 1 2Zm-61 18 1 4Zm-6 4c-3 4-3 4-3 6l-2 4 1 2h4c3-5.75 3-5.75 3-8l-1-1-1-3zm5 0-1 7 2-3zm-2 7 1 3Zm-1 3c-2.12 6.5-2.12 6.5-1 11 2.13-6.5 2.13-6.5 1-11m-11 2-1 2h2zm67 0 1 3Zm-81 3v1h7v-1zm80 0 1 4Zm-1 4 1 4Zm-1 4 1 4Zm-1 4 1 3Zm-1 3 1 3Zm-57 3 1 4Zm56 0 1 4Zm-1 4 1 3Zm-55 2 1 3Zm53 3 1 2Zm-46 5v1h42v-1z"/><path fill="var(--header-icon-1)" d="M231 59c4.57 1.14 5.74 2.38 9 5.67.99 1 1.98 1.99 3 3.02 1.06 1.08 2.13 2.16 3.22 3.27 1.1 1.11 2.2 2.21 3.33 3.35 2.91 2.93 5.82 5.88 8.73 8.82 4.09 4.15 8.2 8.29 12.31 12.43 2.19 2.2 4.37 4.41 6.55 6.62.49.49.49.49 2.99 3.02l2.64 2.67C285 110 285 110 288 112v2c.5.16.5.16 3 1 2.69 2 2.69 2 5 5 .61 5.25.67 8.01-2.33 12.44-1.09 1.09-2.18 2.17-3.3 3.29l-1.81 1.84c-1.97 1.99-3.98 3.95-5.98 5.91q-2.07 2.055-4.14 4.14c-2.89 2.88-5.79 5.75-8.71 8.6-3.74 3.67-7.45 7.37-11.15 11.08-2.85 2.84-5.7 5.68-8.57 8.51-1.37 1.36-2.74 2.72-4.1 4.09-1.91 1.9-3.84 3.78-5.76 5.66-.55.54-.55.54-3.32 3.27-.93.71-1.87 1.43-2.83 2.17-5.18-1.29-7.67-4.34-11.25-8.06-.65-.67-1.3-1.33-1.97-2.01-1.6-1.64-3.19-3.28-4.78-4.93 1.9-3.79 2.9-5.02 5.99-7.65 7.5-6.59 14.61-13.58 21.72-20.6 1.62-1.59 3.25-3.18 4.89-4.76 2.38-2.31 4.74-4.63 7.1-6.97.73-.7 1.46-1.4 2.22-2.12 3.2-3.21 4.98-5.2 5.65-9.75-.7-3.88-1.84-5.16-4.76-7.77-.83-.77-1.65-1.53-2.51-2.32-.76-.68-1.52-1.36-2.3-2.06-5-5-5-5-6.8-6.83-.66-.68-1.33-1.35-2.01-2.05-.61-.61-1.21-1.23-1.83-1.86-2.65-2.54-5.42-4.93-8.19-7.33-3.68-3.27-7.22-6.67-10.73-10.12l-2.23-2.11c-2.09-2.06-2.09-2.06-5.21-5.7 1.28-5.12 3.61-7.08 7.31-10.81 1.15-1.18 2.3-2.37 3.49-3.58 1.06-.86 2.11-1.72 3.2-2.61"/><path fill="var(--header-icon-2)" d="M88 59c4.44 2.22 7.34 5.12 10.75 8.62.6.62 1.2 1.23 1.82 1.86 1.48 1.5 2.96 3.01 4.43 4.52-4.84 5.86-10.11 11.14-15.55 16.44L83.9 95.9c-2.9 2.84-5.8 5.69-8.71 8.51-2.83 2.75-5.63 5.51-8.43 8.28-.88.85-1.76 1.69-2.66 2.56-.8.8-1.61 1.59-2.43 2.42-.71.69-1.42 1.38-2.15 2.1-1.99 2.93-1.94 4.76-1.52 8.23 1.89 2.59 1.89 2.59 4.53 5.15.96.94 1.91 1.89 2.9 2.86 1.01.96 2.03 1.93 3.07 2.93l2.98 2.92c4.74 4.62 9.56 9.09 14.58 13.41 3.8 3.39 7.36 7.04 10.94 10.67.77.78 1.55 1.56 2.35 2.36 1.88 1.9 3.77 3.8 5.65 5.7-2.22 4.44-5.12 7.34-8.62 10.75-.62.6-1.23 1.2-1.86 1.82-1.5 1.48-3.01 2.96-4.52 4.43-3.64-1.82-5.4-3.16-8.18-5.97-.82-.82-1.63-1.64-2.47-2.48-.87-.89-1.75-1.77-2.65-2.69-.45-.45-.45-.45-2.75-2.76l-8.7-8.79c-2.88-2.91-5.77-5.82-8.66-8.73-1.8-1.81-3.59-3.62-5.38-5.43-3.79-3.82-7.59-7.55-11.66-11.06-3.26-2.84-5.81-5.76-8.55-9.09-1.65-1.35-3.32-2.69-5-4-1.7-3.41-1.62-5.18-1-9 2.72-3.75 6.01-6.87 9.34-10.09.95-.94 1.9-1.89 2.87-2.86 2.01-1.99 4.03-3.98 6.05-5.95 3.11-3.03 6.2-6.09 9.28-9.16 1.95-1.93 3.9-3.85 5.86-5.78.93-.92 1.86-1.84 2.82-2.78.43-.42.43-.42 2.61-2.54.76-.75 1.51-1.49 2.3-2.25C68 78 68 78 70 78l2-4c1.91-1.89 3.87-3.72 5.88-5.5 3.46-3.09 6.88-6.18 10.12-9.5"/><path fill="var(--header-icon-3)" d="M177 28h19c-.67 5.39-1.22 9.26-2.86 14.21-2.05 6.42-3.79 12.88-5.45 19.41-.3 1.16-.6 2.31-.9 3.49-1.24 4.84-2.48 9.67-3.71 14.5-.61 2.38-1.21 4.76-1.82 7.14-.57 2.2-1.13 4.41-1.69 6.61-1.5 5.88-3.18 11.67-5.02 17.45-2.51 7.94-4.7 15.94-6.8 24-.38 1.45-.76 2.9-1.16 4.4-3.55 13.56-7.04 27.14-10.52 40.72A4269 4269 0 0 1 144 226h-20c2.44-10.06 5.1-20.03 7.88-30 2.54-9.14 4.99-18.29 7.24-27.5 1.94-7.86 4.01-15.65 6.27-23.43 2.59-8.94 5.08-17.9 7.55-26.88.49-1.77.98-3.54 1.48-5.31 2.47-8.94 4.87-17.86 6.9-26.91 1.17-5.11 2.55-10.16 3.93-15.22.3-1.1.6-2.2.9-3.34 2.49-9.17 5.05-18.34 7.63-27.49.14-.49.14-.49.84-2.97.24-.87.48-1.73.73-2.61.59-2.11 1.12-4.22 1.65-6.34"/><path fill="var(--header-icon-4)" d="M296 122h1c.43 4.72.58 7.19-2.22 11.12-1.01.98-2.03 1.95-3.07 2.95-.56.54-.56.54-3.35 3.28-1.17 1.1-2.34 2.2-3.55 3.34-1.15 1.11-2.3 2.23-3.48 3.37-2.15 2.08-4.3 4.15-6.47 6.2-2.66 2.55-5.27 5.13-7.86 7.74l-2-1c.9-.87 1.81-1.74 2.74-2.64 3.35-3.25 6.69-6.52 10.02-9.79 1.45-1.42 2.89-2.82 4.35-4.22 2.09-2.02 4.16-4.06 6.23-6.1l1.97-1.88c3.98-3.98 5.53-6.72 5.69-12.37"/><path fill="var(--header-icon-5)" d="M152 46h3c-.57 6.96-2.01 13.31-4 20-3.35-6.69-.87-13.01 1-20m0 5 1 3Zm-1 3 1 2Zm-1 4 1 3Z"/><path fill="var(--header-icon-6)" d="M211 44c2 2 2 2 2 6l2 1-7 6z"/><path fill="var(--header-icon-7)" d="m52 67 2 1-14 14c0-3 0-3 2.62-5.92 1.12-1.08 2.23-2.16 3.38-3.27l3.38-3.29c.86-.83 1.73-1.66 2.62-2.52m52 149 3 1c-.75 7.75-.75 7.75-3 10zm112-15c6.88 5.75 6.88 5.75 8 8-3.57-1.79-5.43-3.07-8-6zM99 143c4 2 4 2 6 6-2.02-1.64-4.02-3.31-6-5zm112-48 6 5h-3l-3-3zm2-59h1l-1 8c-1-4-1-4 0-8M62 191l4 4-4-2zm106 13 1 4Zm4-15 1 4Zm17-63 1 4Zm-58-2 1 4Zm59-2 1 4Zm-58-2 1 4Zm15-54 1 4Zm67-34 1 4Zm-97 126h2l-1 2zM13 145l2 2h-2zm204-44 2 2h-2zM11 144l2 1Z"/></svg>